HIERARCHY
ROOT hip
{
  OFFSET 0 0 0
  CHANNELS 6 Xposition Yposition Zposition Zrotation Yrotation Xrotation
  JOINT abdomen
  {
    OFFSET 0 20.6881 -0.73152
    CHANNELS 3 Zrotation Xrotation Yrotation
    JOINT chest
    {
      OFFSET 0 11.7043 -0.48768
      CHANNELS 3 Zrotation Xrotation Yrotation
      JOINT neck
      {
        OFFSET 0 22.1894 -2.19456
        CHANNELS 3 Zrotation Xrotation Yrotation
        JOINT head
        {
          OFFSET -0.24384 7.07133 1.2192
          CHANNELS 3 Zrotation Xrotation Yrotation
          JOINT leftEye
          {
            OFFSET 4.14528 8.04674 8.04672
            CHANNELS 3 Zrotation Xrotation Yrotation
            End Site
            {
              OFFSET 1 0 0
            }
          }
          JOINT rightEye
          {
            OFFSET -3.6576 8.04674 8.04672
            CHANNELS 3 Zrotation Xrotation Yrotation
            End Site
            {
              OFFSET 1 0 0
            }
          }
        }
      }
      JOINT rCollar
      {
        OFFSET -2.68224 19.2634 -4.8768
        CHANNELS 3 Zrotation Xrotation Yrotation
        JOINT rShldr
        {
          OFFSET -8.77824 -1.95073 1.46304
          CHANNELS 3 Zrotation Xrotation Yrotation
          JOINT rForeArm
          {
            OFFSET -28.1742 -1.7115 0.48768
            CHANNELS 3 Zrotation Xrotation Yrotation
            JOINT rHand
            {
              OFFSET -22.5879 0.773209 7.07136
              CHANNELS 3 Zrotation Xrotation Yrotation
              JOINT rThumb1
              {
                OFFSET -1.2192 -0.487915 3.41376
                CHANNELS 3 Zrotation Xrotation Yrotation
                JOINT rThumb2
                {
                  OFFSET -3.37035 -0.52449 3.41376
                  CHANNELS 3 Zrotation Xrotation Yrotation
                  End Site
                  {
                    OFFSET -1.78271 -1.18214 1.43049
                  }
                }
              }
              JOINT rIndex1
              {
                OFFSET -7.75947 0.938293 5.60832
                CHANNELS 3 Zrotation Xrotation Yrotation
                JOINT rIndex2
                {
                  OFFSET -2.54057 -0.884171 1.56538
                  CHANNELS 3 Zrotation Xrotation Yrotation
                  End Site
                  {
                    OFFSET -1.62519 -0.234802 1.16502
                  }
                }
              }
              JOINT rMid1
              {
                OFFSET -8.24714 1.18213 3.41376
                CHANNELS 3 Zrotation Xrotation Yrotation
                JOINT rMid2
                {
                  OFFSET -3.10165 -0.590103 1.0647
                  CHANNELS 3 Zrotation Xrotation Yrotation
                  End Site
                  {
                    OFFSET -2.48547 -0.328903 0.83742
                  }
                }
              }
              JOINT rRing1
              {
                OFFSET -8.82822 0.546677 1.51678
                CHANNELS 3 Zrotation Xrotation Yrotation
                JOINT rRing2
                {
                  OFFSET -2.60934 -0.819778 -0.0198488
                  CHANNELS 3 Zrotation Xrotation Yrotation
                  End Site
                  {
                    OFFSET -2.33842 -0.294052 0.168128
                  }
                }
              }
              JOINT rPinky1
              {
                OFFSET -8.27202 -0.0477905 -0.4584
                CHANNELS 3 Zrotation Xrotation Yrotation
                JOINT rPinky2
                {
                  OFFSET -1.82734 -0.647385 -0.700984
                  CHANNELS 3 Zrotation Xrotation Yrotation
                  End Site
                  {
                    OFFSET -1.69225 -0.51767 -0.607171
                  }
                }
              }
            }
          }
        }
      }
      JOINT lCollar
      {
        OFFSET 2.68224 19.2634 -4.8768
        CHANNELS 3 Zrotation Xrotation Yrotation
        JOINT lShldr
        {
          OFFSET 8.77824 -1.95073 1.46304
          CHANNELS 3 Zrotation Xrotation Yrotation
          JOINT lForeArm
          {
            OFFSET 28.1742 -1.7115 0.48768
            CHANNELS 3 Zrotation Xrotation Yrotation
            JOINT lHand
            {
              OFFSET 22.5879 0.773209 7.07136
              CHANNELS 3 Zrotation Xrotation Yrotation
              JOINT lThumb1
              {
                OFFSET 1.2192 -0.487915 3.41376
                CHANNELS 3 Zrotation Xrotation Yrotation
                JOINT lThumb2
                {
                  OFFSET 3.37035 -0.52449 3.41376
                  CHANNELS 3 Zrotation Xrotation Yrotation
                  End Site
                  {
                    OFFSET 1.78271 -1.18214 1.43049
                  }
                }
              }
              JOINT lIndex1
              {
                OFFSET 7.75947 0.938293 5.60832
                CHANNELS 3 Zrotation Xrotation Yrotation
                JOINT lIndex2
                {
                  OFFSET 2.54057 -0.884171 1.56538
                  CHANNELS 3 Zrotation Xrotation Yrotation
                  End Site
                  {
                    OFFSET 1.62519 -0.234802 1.16502
                  }
                }
              }
              JOINT lMid1
              {
                OFFSET 8.24714 1.18213 3.41376
                CHANNELS 3 Zrotation Xrotation Yrotation
                JOINT lMid2
                {
                  OFFSET 3.10165 -0.590103 1.0647
                  CHANNELS 3 Zrotation Xrotation Yrotation
                  End Site
                  {
                    OFFSET 2.48547 -0.328903 0.83742
                  }
                }
              }
              JOINT lRing1
              {
                OFFSET 8.82822 0.546677 1.51678
                CHANNELS 3 Zrotation Xrotation Yrotation
                JOINT lRing2
                {
                  OFFSET 2.60934 -0.819778 -0.0198488
                  CHANNELS 3 Zrotation Xrotation Yrotation
                  End Site
                  {
                    OFFSET 2.33842 -0.294052 0.168128
                  }
                }
              }
              JOINT lPinky1
              {
                OFFSET 8.27202 -0.0477905 -0.4584
                CHANNELS 3 Zrotation Xrotation Yrotation
                JOINT lPinky2
                {
                  OFFSET 1.82734 -0.647385 -0.700984
                  CHANNELS 3 Zrotation Xrotation Yrotation
                  End Site
                  {
                    OFFSET 1.69225 -0.51767 -0.607171
                  }
                }
              }
            }
          }
        }
      }
    }
  }
  JOINT rButtock
  {
    OFFSET -8.77824 4.35084 1.2192
    CHANNELS 3 Zrotation Xrotation Yrotation
    JOINT rThigh
    {
      OFFSET 0 -1.70687 -2.19456
      CHANNELS 3 Zrotation Xrotation Yrotation
      JOINT rShin
      {
        OFFSET 0 -36.8199 0.73152
        CHANNELS 3 Zrotation Xrotation Yrotation
        JOINT rFoot
        {
          OFFSET 0.73152 -45.1104 -5.12064
          CHANNELS 3 Zrotation Xrotation Yrotation
          End Site
          {
            OFFSET -1.1221 -3.69964 12.103
          }
        }
      }
    }
  }
  JOINT lButtock
  {
    OFFSET 8.77824 4.35084 1.2192
    CHANNELS 3 Zrotation Xrotation Yrotation
    JOINT lThigh
    {
      OFFSET 0 -1.70687 -2.19456
      CHANNELS 3 Zrotation Xrotation Yrotation
      JOINT lShin
      {
        OFFSET 0 -36.8199 0.73152
        CHANNELS 3 Zrotation Xrotation Yrotation
        JOINT lFoot
        {
          OFFSET -0.73152 -45.1104 -5.12064
          CHANNELS 3 Zrotation Xrotation Yrotation
          End Site
          {
            OFFSET 1.1221 -3.69964 12.103
          }
        }
      }
    }
  }
}
MOTION
Frames:	4
Frame Time:	0.03333333333333333
130.2687 82.3908 -35.754599999999996 720.408 25.0884 8.1173 0.611659 -6.02537 0.500753 0.374906 0.611469 0.170337 -4.48237 9.7684 -11.1716 1.51977 -3.39502 -20.963 -0.0 0.0 0.0 -0.0 0.0 0.0 1.30688e-13 -2.15009e-13 -5.09386e-14 71.3989 11.101900000000002 -0.920839 -27.428 -42.8392 89.0791 -0.491275 -19.5322 -2.85755 -2.54252e-10 -4.09956e-09 -1.5747700000000001e-09 -4.18387e-10 -6.9733599999999996e-09 -2.72321e-09 -2.54249e-10 -4.09959e-09 -1.5747700000000001e-09 7.730910000000001 5.47488 0.417314 -2.54253e-10 -4.09959e-09 -1.5747700000000001e-09 2.9055400000000002 0.965183 0.102902 -2.54251e-10 -4.09956e-09 -1.57476e-09 10.2786 0.731801 0.0259123 -2.54255e-10 -4.09956e-09 -1.57475e-09 2.22167 -0.733487 -0.20892 1.30775e-13 -2.1501000000000004e-13 -5.12181e-14 -96.24860000000001 57.87050000000001 18.2658 26.8786 -25.9388 -60.7667 0.165137 -11.6171 1.65506 -2.1277999999999996e-10 8.63193e-12 1.99012e-09 -3.88244e-10 -5.3885e-11 3.43757e-09 -2.12784e-10 8.63631e-12 1.99014e-09 -7.730910000000001 5.47488 -0.417314 -2.1277999999999996e-10 8.63459e-12 1.99013e-09 -2.9055400000000002 0.965183 -0.102902 -2.12788e-10 8.63321e-12 1.99013e-09 -10.2786 0.731801 -0.0259123 -2.12778e-10 8.62976e-12 1.99012e-09 -2.22167 -0.733487 0.20892 -2.03217e-16 0.0 -3.88251e-19 -24.3186 -19.6366 -9.92993 -0.0883406 24.0103 0.267904 0.0404392 3.9774400000000005 -30.9352 2.03217e-16 0.0 3.88251e-19 3.29237 -16.6727 7.466639999999999 0.0825961 22.1239 -0.575213 7.52357 -15.084800000000001 21.0468
130.3241 82.5025 -35.9126 720.13 25.822 8.2069 1.43801 -6.33961 -0.11354199999999999 0.317551 0.734104 -0.0112694 -4.44826 9.63645 -11.3039 1.45706 -3.51399 -21.2303 -0.0 0.0 0.0 -0.0 0.0 0.0 1.99294e-13 -1.72147e-13 3.8266e-14 70.5151 9.89678 -1.27353 -27.7275 -41.6607 86.9529 -0.558687 -20.7456 -3.0515100000000004 6.50058e-11 -2.38066e-09 -1.37367e-09 1.3417800000000003e-10 -3.9792e-09 -2.37315e-09 6.50085e-11 -2.38066e-09 -1.37367e-09 7.730910000000001 5.47488 0.417314 6.500450000000001e-11 -2.38066e-09 -1.37367e-09 2.9055400000000002 0.965183 0.102902 6.50067e-11 -2.38066e-09 -1.37366e-09 10.2786 0.731801 0.0259123 6.50056e-11 -2.38066e-09 -1.37364e-09 2.22167 -0.733487 -0.20892 1.9948200000000002e-13 -1.72147e-13 3.80673e-14 -96.59900000000002 56.118700000000004 19.6003 26.704 -25.3952 -59.9149 0.119452 -9.80785 1.39216 -6.88065e-10 -1.10361e-09 1.42068e-09 -1.19893e-09 -1.93889e-09 2.44892e-09 -6.88071e-10 -1.10361e-09 1.42071e-09 -7.730910000000001 5.47488 -0.417314 -6.88065e-10 -1.10361e-09 1.42068e-09 -2.9055400000000002 0.965183 -0.102902 -6.88075e-10 -1.10361e-09 1.42069e-09 -10.2786 0.731801 -0.0259123 -6.88063e-10 -1.10361e-09 1.42068e-09 -2.22167 -0.733487 0.20892 -2.03217e-16 0.0 -3.88251e-19 -23.0308 -17.9283 -8.27555 -0.0494701 21.0054 0.22357 -0.336058 3.03927 -32.5615 2.03217e-16 0.0 3.88251e-19 3.52069 -16.9347 6.70465 0.0858345 22.0306 -0.574748 7.47252 -15.1403 20.7269
130.1489 82.502 -36.175799999999995 719.919 26.0145 8.4121 1.8515300000000001 -6.290760000000001 -0.396072 0.600157 0.64109 -0.0944522 -4.45734 9.38639 -11.4898 1.31064 -3.9092200000000004 -21.5986 -0.0 0.0 0.0 -0.0 0.0 0.0 3.64903e-14 4.83819e-14 -6.98039e-13 70.0071 8.61204 -1.39129 -27.840000000000003 -41.1225 86.0108 -0.658623 -22.3503 -3.314 2.35075e-09 1.86471e-08 1.74671e-09 4.02495e-09 3.20999e-08 3.05885e-09 2.35075e-09 1.8647e-08 1.7467e-09 7.730910000000001 5.47488 0.417314 2.35074e-09 1.8647e-08 1.74671e-09 2.9055400000000002 0.965183 0.102902 2.35075e-09 1.8647e-08 1.74671e-09 10.2786 0.731801 0.0259123 2.35074e-09 1.8647e-08 1.7467200000000001e-09 2.22167 -0.733487 -0.20892 3.65592e-14 4.83771e-14 -6.98259e-13 -96.3366 54.5293 20.3818 26.6015 -25.0884 -59.4301 0.134148 -10.3788 1.47503 -2.65003e-10 -1.01645e-09 1.8709300000000003e-09 -4.68335e-10 -1.7882400000000002e-09 3.23283e-09 -2.65009e-10 -1.01645e-09 1.87095e-09 -7.730910000000001 5.47488 -0.417314 -2.65002e-10 -1.01645e-09 1.8709300000000003e-09 -2.9055400000000002 0.965183 -0.102902 -2.65013e-10 -1.01645e-09 1.8709300000000003e-09 -10.2786 0.731801 -0.0259123 -2.64999e-10 -1.01645e-09 1.8709300000000003e-09 -2.22167 -0.733487 0.20892 -2.03217e-16 0.0 -3.88251e-19 -22.1918 -17.1645 -7.02677 -0.0316789 19.4034 0.223352 -1.22143 1.49379 -33.8397 2.03217e-16 0.0 3.88251e-19 3.92508 -17.6881 6.749590000000001 0.0923746 22.6314 -0.586886 7.36142 -15.3649 20.1285
129.9869 82.483 -36.3699 719.752 26.4282 8.4016 2.11183 -6.23308 -0.576997 0.88362 0.540305 -0.148369 -4.44862 9.17049 -11.6105 1.15754 -4.32047 -21.8439 -0.0 0.0 0.0 -0.0 0.0 0.0 -1.4374100000000002e-13 2.92218e-13 -1.32619e-12 69.9654 7.443280000000001 -1.23576 -27.8584 -41.1036 85.923 -0.676558 -22.6977 -3.36995 4.1943e-09 3.71858e-08 4.8664e-09 7.15587e-09 6.3893e-08 8.48155e-09 4.1943e-09 3.71857e-08 4.86639e-09 7.730910000000001 5.47488 0.417314 4.1943e-09 3.71857e-08 4.86639e-09 2.9055400000000002 0.965183 0.102902 4.19431e-09 3.71857e-08 4.8664e-09 10.2786 0.731801 0.0259123 4.19429e-09 3.71858e-08 4.8664e-09 2.22167 -0.733487 -0.20892 -1.4381e-13 2.92209e-13 -1.32644e-12 -96.0077 53.1021 21.1846 26.5431 -24.9164 -59.1487 0.161329 -11.373500000000002 1.61999 2.39328e-10 -5.54855e-10 1.91342e-09 4.04565e-10 -9.87689e-10 3.31311e-09 2.39323e-10 -5.54853e-10 1.9134400000000004e-09 -7.730910000000001 5.47488 -0.417314 2.39329e-10 -5.54854e-10 1.91342e-09 -2.9055400000000002 0.965183 -0.102902 2.3932e-10 -5.54854e-10 1.91343e-09 -10.2786 0.731801 -0.0259123 2.39335e-10 -5.54853e-10 1.91342e-09 -2.22167 -0.733487 0.20892 -2.03217e-16 0.0 -3.88251e-19 -21.7145 -16.9863 -6.39717 -0.0227221 18.6948 0.236556 -2.01791 0.217471 -34.6194 2.03217e-16 0.0 3.88251e-19 4.34016 -18.6581 7.00546 0.100497 23.6012 -0.607867 7.30732 -15.5387 19.7443
